<svg width="35" height="35" viewBox="0 0 35 35" fill="none" xmlns="http://www.w3.org/2000/svg">
<path d="M10 19C11.1 19 12 18.1 12 17C12 15.9 11.1 15 10 15C8.9 15 8 15.9 8 17C8 18.1 8.9 19 10 19ZM11.13 20.1C10.76 20.04 10.39 20 10 20C9.01 20 8.07 20.21 7.22 20.58C6.48 20.9 6 21.62 6 22.43V24H10.5V22.39C10.5 21.56 10.73 20.78 11.13 20.1ZM26 19C27.1 19 28 18.1 28 17C28 15.9 27.1 15 26 15C24.9 15 24 15.9 24 17C24 18.1 24.9 19 26 19ZM30 22.43C30 21.62 29.52 20.9 28.78 20.58C27.93 20.21 26.99 20 26 20C25.61 20 25.24 20.04 24.87 20.1C25.27 20.78 25.5 21.56 25.5 22.39V24H30V22.43ZM22.24 19.65C21.07 19.13 19.63 18.75 18 18.75C16.37 18.75 14.93 19.14 13.76 19.65C12.68 20.13 12 21.21 12 22.39V24H24V22.39C24 21.21 23.32 20.13 22.24 19.65ZM14.07 22C14.16 21.77 14.2 21.61 14.98 21.31C15.95 20.93 16.97 20.75 18 20.75C19.03 20.75 20.05 20.93 21.02 21.31C21.79 21.61 21.83 21.77 21.93 22H14.07ZM18 14C18.55 14 19 14.45 19 15C19 15.55 18.55 16 18 16C17.45 16 17 15.55 17 15C17 14.45 17.45 14 18 14ZM18 12C16.34 12 15 13.34 15 15C15 16.66 16.34 18 18 18C19.66 18 21 16.66 21 15C21 13.34 19.66 12 18 12Z" fill="white"/>
<rect x="0.5" y="0.5" width="34" height="34" rx="11.5" stroke="white"/>
</svg>
