<svg width="5" height="19" viewBox="0 0 5 19" fill="none" xmlns="http://www.w3.org/2000/svg">
<path d="M2.44325 4.75247C3.7289 4.75247 4.78079 3.70058 4.78079 2.41493C4.78079 1.12929 3.7289 0.0773926 2.44325 0.0773926C1.15761 0.0773926 0.105713 1.12929 0.105713 2.41493C0.105713 3.70058 1.15761 4.75247 2.44325 4.75247ZM2.44325 7.09001C1.15761 7.09001 0.105713 8.1419 0.105713 9.42755C0.105713 10.7132 1.15761 11.7651 2.44325 11.7651C3.7289 11.7651 4.78079 10.7132 4.78079 9.42755C4.78079 8.1419 3.7289 7.09001 2.44325 7.09001ZM2.44325 14.1026C1.15761 14.1026 0.105713 15.1545 0.105713 16.4402C0.105713 17.7258 1.15761 18.7777 2.44325 18.7777C3.7289 18.7777 4.78079 17.7258 4.78079 16.4402C4.78079 15.1545 3.7289 14.1026 2.44325 14.1026Z" fill="#4C4C4C"/>
</svg>
