<svg width="35" height="35" viewBox="0 0 35 35" fill="none" xmlns="http://www.w3.org/2000/svg">
<rect x="0.5" y="0.5" width="34" height="34" rx="11.5" stroke="white"/>
<path d="M29 16V14C23 12 18 7 18 7C18 7 13 12 7 14V16C7 17.49 7.93 18.75 9.24 19.26C9.2 21.76 8.92 24.69 8 27H28C27.08 24.69 26.8 21.76 26.76 19.26C28.07 18.75 29 17.49 29 16ZM18 9.71C19.33 10.85 21.49 12.55 24.11 14H11.89C14.51 12.55 16.67 10.85 18 9.71ZM19 16H22C22 16.83 21.33 17.5 20.5 17.5C19.67 17.5 19 16.83 19 16ZM15.5 17.5C14.67 17.5 14 16.83 14 16H17C17 16.83 16.33 17.5 15.5 17.5ZM12 16C12 16.83 11.33 17.5 10.5 17.5C9.67 17.5 9 16.83 9 16H12ZM10.66 25C11.05 23.14 11.2 21.18 11.23 19.42C11.91 19.27 12.52 18.93 12.99 18.44C13.24 18.69 13.53 18.89 13.84 19.06C13.74 20.93 13.58 23.06 13.32 24.99H10.66V25ZM15.35 25C15.59 23.17 15.74 21.22 15.83 19.47C16.67 19.39 17.44 19.02 18 18.45C18.56 19.02 19.32 19.39 20.17 19.47C20.27 21.22 20.41 23.17 20.65 25H15.35ZM22.67 25C22.4 23.06 22.24 20.93 22.15 19.07C22.46 18.9 22.76 18.7 23 18.45C23.47 18.93 24.08 19.28 24.76 19.43C24.79 21.19 24.94 23.15 25.33 25.01H22.67V25ZM25.5 17.5C24.67 17.5 24 16.83 24 16H27C27 16.83 26.33 17.5 25.5 17.5Z" fill="white"/>
</svg>
