<svg width="25" height="23" viewBox="0 0 25 23" fill="none" xmlns="http://www.w3.org/2000/svg">
<path d="M17.8163 0.739746C15.7826 0.739746 13.8308 1.68645 12.5568 3.18248C11.2829 1.68645 9.33103 0.739746 7.29737 0.739746C3.69756 0.739746 0.869141 3.56817 0.869141 7.16798C0.869141 11.5859 4.84296 15.1857 10.8621 20.6556L12.5568 22.1867L14.2516 20.6439C20.2707 15.1857 24.2445 11.5859 24.2445 7.16798C24.2445 3.56817 21.4161 0.739746 17.8163 0.739746ZM12.6737 18.9141L12.5568 19.031L12.44 18.9141C6.87662 13.8767 3.20668 10.5457 3.20668 7.16798C3.20668 4.83044 4.95983 3.07729 7.29737 3.07729C9.09728 3.07729 10.8504 4.23437 11.4699 5.83558H13.6555C14.2632 4.23437 16.0164 3.07729 17.8163 3.07729C20.1538 3.07729 21.907 4.83044 21.907 7.16798C21.907 10.5457 18.2371 13.8767 12.6737 18.9141Z" fill="#4C4C4C"/>
</svg>
