<svg width="59" height="59" viewBox="0 0 59 59" fill="none" xmlns="http://www.w3.org/2000/svg">
<path d="M29.2327 15.3567C26.5354 15.3586 23.8992 16.1602 21.6574 17.6602C19.4156 19.1602 17.6688 21.2913 16.6379 23.7838C15.6071 26.2764 15.3384 29.0186 15.8658 31.6639C16.3932 34.3091 17.6931 36.7387 19.6011 38.6453C21.509 40.552 23.9394 41.8503 26.5851 42.3758C29.2307 42.9013 31.9728 42.6303 34.4646 41.5976C36.9565 40.5649 39.0862 38.8168 40.5846 36.5739C42.0829 34.331 42.8826 31.6943 42.8826 28.9969C42.8826 27.2048 42.5295 25.4303 41.8434 23.7747C41.1573 22.1192 40.1517 20.6152 38.8841 19.3485C37.6165 18.0818 36.1116 17.0773 34.4556 16.3924C32.7996 15.7075 31.0248 15.3554 29.2327 15.3567ZM29.2327 37.3143C27.5877 37.3143 25.9795 36.8266 24.6117 35.9127C23.2439 34.9987 22.1778 33.6997 21.5483 32.1798C20.9187 30.66 20.754 28.9878 21.075 27.3743C21.3959 25.7608 22.1881 24.2787 23.3513 23.1154C24.5145 21.9522 25.9966 21.1602 27.6101 20.8393C29.2235 20.5183 30.8959 20.683 32.4158 21.3125C33.9356 21.9421 35.2346 23.0082 36.1486 24.376C37.0625 25.7438 37.5503 27.3518 37.5503 28.9969C37.5503 30.0892 37.3352 31.1707 36.9172 32.1798C36.4992 33.1889 35.8865 34.1061 35.1142 34.8784C34.3418 35.6508 33.4249 36.2633 32.4158 36.6813C31.4066 37.0993 30.325 37.3143 29.2327 37.3143Z" fill="url(#paint0_linear_34_197)"/>
<path d="M29.2327 20.6792C27.5876 20.6792 25.9795 21.1673 24.6117 22.0812C23.2439 22.9952 22.1778 24.2943 21.5482 25.8141C20.9187 27.334 20.754 29.0062 21.0749 30.6196C21.3959 32.2331 22.188 33.7153 23.3513 34.8785C24.5145 36.0418 25.9966 36.8337 27.61 37.1547C29.2235 37.4756 30.8959 37.311 32.4157 36.6814C33.9356 36.0519 35.2346 34.9857 36.1485 33.6179C37.0625 32.2501 37.5503 30.6421 37.5503 28.997C37.5503 26.791 36.674 24.6754 35.1141 23.1155C33.5543 21.5557 31.4387 20.6792 29.2327 20.6792ZM29.2327 34.6042C28.1266 34.5984 27.047 34.2656 26.1297 33.6476C25.2123 33.0297 24.4982 32.1541 24.0772 31.1313C23.6561 30.1084 23.547 28.9841 23.7635 27.8994C23.98 26.8148 24.5125 25.8182 25.2939 25.0354C26.0753 24.2526 27.0709 23.7185 28.1552 23.5001C29.2395 23.2817 30.3641 23.3891 31.3876 23.8084C32.4112 24.2276 33.2879 24.94 33.9074 25.8563C34.527 26.7726 34.8617 27.8516 34.8694 28.9577C34.8746 29.6998 34.7325 30.4358 34.4512 31.1226C34.1699 31.8094 33.755 32.4334 33.2307 32.9586C32.7064 33.4839 32.083 33.8998 31.3967 34.1823C30.7104 34.4648 29.9749 34.6082 29.2327 34.6042Z" fill="url(#paint1_linear_34_197)"/>
<path d="M46.084 9.37638C47.5754 9.37638 48.7845 8.16732 48.7845 6.67586C48.7845 5.18441 47.5754 3.97534 46.084 3.97534C44.5925 3.97534 43.3835 5.18441 43.3835 6.67586C43.3835 8.16732 44.5925 9.37638 46.084 9.37638Z" fill="url(#paint2_linear_34_197)"/>
<path d="M29.4684 57.9368C45.1911 57.9368 57.9368 45.1911 57.9368 29.4684C57.9368 13.7457 45.1911 1 29.4684 1C13.7457 1 1 13.7457 1 29.4684C1 45.1911 13.7457 57.9368 29.4684 57.9368Z" stroke="url(#paint3_linear_34_197)" stroke-width="1.47301" stroke-miterlimit="10"/>
<defs>
<linearGradient id="paint0_linear_34_197" x1="29.2327" y1="27.8283" x2="29.2327" y2="40.3981" gradientUnits="userSpaceOnUse">
<stop offset="0.05" stop-color="#218FB1"/>
<stop offset="1" stop-color="#0C1E23"/>
</linearGradient>
<linearGradient id="paint1_linear_34_197" x1="20.9151" y1="28.9969" x2="37.5503" y2="28.9969" gradientUnits="userSpaceOnUse">
<stop offset="0.04" stop-color="#3D9DBB"/>
<stop offset="0.99" stop-color="#103743"/>
</linearGradient>
<linearGradient id="paint2_linear_34_197" x1="43.3933" y1="6.67586" x2="48.7845" y2="6.67586" gradientUnits="userSpaceOnUse">
<stop stop-color="#39B54A"/>
<stop offset="1" stop-color="#D9E021"/>
</linearGradient>
<linearGradient id="paint3_linear_34_197" x1="8.81678" y1="50.12" x2="50.12" y2="8.81678" gradientUnits="userSpaceOnUse">
<stop stop-color="#218FB1"/>
<stop offset="1" stop-color="#A887F9" stop-opacity="0"/>
</linearGradient>
</defs>
</svg>
