<svg width="36" height="36" viewBox="0 0 36 36" fill="none" xmlns="http://www.w3.org/2000/svg">
<path d="M12.74 5.02C12.38 6.3 12.2 7.64 12.2 9C12.2 17.16 18.84 23.8 27 23.8C28.36 23.8 29.7 23.62 30.98 23.26C28.9 28.38 23.86 32 18 32C10.28 32 4 25.72 4 18C4 12.14 7.62 7.1 12.74 5.02ZM18 0C8.06 0 0 8.06 0 18C0 27.94 8.06 36 18 36C27.94 36 36 27.94 36 18C36 17.08 35.92 16.16 35.8 15.28C33.84 18.02 30.64 19.8 27 19.8C21.04 19.8 16.2 14.96 16.2 9C16.2 5.38 17.98 2.16 20.72 0.2C19.84 0.0799998 18.92 0 18 0Z" fill="#2E8AA6"/>
</svg>
