<svg width="35" height="35" viewBox="0 0 35 35" fill="none" xmlns="http://www.w3.org/2000/svg">
<path d="M28.47 11.2C28 10.96 27.51 10.76 27 10.59V22.62C25.86 22.21 24.69 22 23.5 22C21.6 22 19.72 22.54 18 23.58V11.48C16.38 10.55 14.51 10 12.5 10C10.71 10 9.02 10.44 7.53 11.2C7.2 11.36 7 11.71 7 12.08V24.16C7 24.74 7.47 25.15 8 25.15C8.16 25.15 8.32 25.11 8.48 25.03C9.69 24.4 11.05 24 12.5 24C14.57 24 16.48 24.82 18 26C19.52 24.82 21.43 24 23.5 24C24.95 24 26.31 24.4 27.52 25.04C27.68 25.12 27.84 25.16 28 25.16C28.52 25.16 29 24.75 29 24.17V12.08C29 11.71 28.8 11.36 28.47 11.2ZM16 22.62C14.86 22.21 13.69 22 12.5 22C11.31 22 10.14 22.21 9 22.62V12.71C10.11 12.24 11.28 12 12.5 12C13.7 12 14.89 12.25 16 12.72V22.62ZM25 6.5L20 11.5V21L25 16.5V6.5Z" fill="white"/>
<rect x="0.5" y="0.5" width="34" height="34" rx="11.5" stroke="white"/>
</svg>
