<svg width="44" height="44" viewBox="0 0 44 44" fill="none" xmlns="http://www.w3.org/2000/svg">
<path d="M22 16C25.3 16 28 18.7 28 22C28 25.3 25.3 28 22 28C18.7 28 16 25.3 16 22C16 18.7 18.7 16 22 16ZM22 12C16.48 12 12 16.48 12 22C12 27.52 16.48 32 22 32C27.52 32 32 27.52 32 22C32 16.48 27.52 12 22 12ZM2 24H6C7.1 24 8 23.1 8 22C8 20.9 7.1 20 6 20H2C0.9 20 0 20.9 0 22C0 23.1 0.9 24 2 24ZM38 24H42C43.1 24 44 23.1 44 22C44 20.9 43.1 20 42 20H38C36.9 20 36 20.9 36 22C36 23.1 36.9 24 38 24ZM20 2V6C20 7.1 20.9 8 22 8C23.1 8 24 7.1 24 6V2C24 0.9 23.1 0 22 0C20.9 0 20 0.9 20 2ZM20 38V42C20 43.1 20.9 44 22 44C23.1 44 24 43.1 24 42V38C24 36.9 23.1 36 22 36C20.9 36 20 36.9 20 38ZM9.98 7.16C9.2 6.38 7.92 6.38 7.16 7.16C6.38 7.94 6.38 9.22 7.16 9.98L9.28 12.1C10.06 12.88 11.34 12.88 12.1 12.1C12.86 11.32 12.88 10.04 12.1 9.28L9.98 7.16ZM34.72 31.9C33.94 31.12 32.66 31.12 31.9 31.9C31.12 32.68 31.12 33.96 31.9 34.72L34.02 36.84C34.8 37.62 36.08 37.62 36.84 36.84C37.62 36.06 37.62 34.78 36.84 34.02L34.72 31.9ZM36.84 9.98C37.62 9.2 37.62 7.92 36.84 7.16C36.06 6.38 34.78 6.38 34.02 7.16L31.9 9.28C31.12 10.06 31.12 11.34 31.9 12.1C32.68 12.86 33.96 12.88 34.72 12.1L36.84 9.98ZM12.1 34.72C12.88 33.94 12.88 32.66 12.1 31.9C11.32 31.12 10.04 31.12 9.28 31.9L7.16 34.02C6.38 34.8 6.38 36.08 7.16 36.84C7.94 37.6 9.22 37.62 9.98 36.84L12.1 34.72Z" fill="#54BBDB"/>
</svg>
